<?xml version="1.0" encoding="UTF-8" standalone="no"?><!DOCTYPE svg PUBLIC "-//W3C//DTD SVG 1.1//EN" "http://www.w3.org/Graphics/SVG/1.1/DTD/svg11.dtd"><svg width="100%" height="100%" viewBox="0 0 800 400" version="1.1" xmlns="http://www.w3.org/2000/svg" xmlns:xlink="http://www.w3.org/1999/xlink" xml:space="preserve" xmlns:serif="http://www.serif.com/" style="fill-rule:evenodd;clip-rule:evenodd;stroke-linejoin:round;stroke-miterlimit:2;"><g><text x="70.701px" y="139.577px" style="font-family:'PressStart2P-Regular', 'Press Start 2P';font-size:79.638px;">Open</text><text x="170.182px" y="239.177px" style="font-family:'PressStart2P-Regular', 'Press Start 2P';font-size:79.638px;">Pixel</text><text x="70.701px" y="319.751px" style="font-family:'PressStart2P-Regular', 'Press Start 2P';font-size:79.638px;">Art</text><text x="340.119px" y="309.796px" style="font-family:'PressStart2P-Regular', 'Press Start 2P';font-size:39.802px;">by</text><g><rect x="150.477" y="220.061" width="9.957" height="9.957" style="fill:#f22f46;"/><rect x="400.477" y="110.019" width="9.957" height="9.957" style="fill:#0d122b;"/><rect x="480.435" y="150.061" width="9.957" height="9.957" style="fill:#f22f46;"/><rect x="570.477" y="200.019" width="9.957" height="9.957" style="fill:#8c5bd8;"/><rect x="210.477" y="49.981" width="9.957" height="9.957" style="fill:#f22f46;"/><rect x="250.435" y="199.976" width="9.957" height="9.957" style="fill:#36d576;"/><rect x="110.435" y="150.019" width="9.957" height="9.957" style="fill:#efdc2e;"/><rect x="350.435" y="250.019" width="9.957" height="9.957" style="fill:#f22f46;"/><rect x="180.435" y="320.061" width="9.957" height="9.957" style="fill:#f22f46;"/><rect x="620.435" y="230.019" width="9.957" height="9.957" style="fill:#f47c22;"/><rect x="630.392" y="320.061" width="9.957" height="9.957" style="fill:#008cff;"/><rect x="310.477" y="299.839" width="9.957" height="9.957" style="fill:#8c5bd8;"/><rect x="520.435" y="340.061" width="9.957" height="9.957" style="fill:#f22f46;"/><rect x="710.435" y="190.019" width="9.957" height="9.957" style="fill:#f22f46;"/><rect x="600.435" y="150.061" width="9.957" height="9.957" style="fill:#f47c22;"/><rect x="660.477" y="170.061" width="9.957" height="9.957" style="fill:#f22f46;"/><rect x="490.477" y="240.019" width="9.957" height="9.957" style="fill:#f22f46;"/><rect x="540.477" y="90.019" width="9.957" height="9.957" style="fill:#f22f46;"/><rect x="370.435" y="49.981" width="9.957" height="9.957" style="fill:#f22f46;"/><rect x="690.477" y="120.019" width="9.957" height="9.957" style="fill:#37d676;"/><rect x="460.435" y="70.019" width="9.957" height="9.957" style="fill:#8d57d8;"/></g><text x="495.459px" y="314.772px" style="font-family:'PressStart2P-Regular', 'Press Start 2P';font-size:39.802px;fill:#f22f46;">Twilio</text><g><path d="M448.896,278.48l0,9.231l9.231,0l0,-9.231l-9.231,0Z" style="fill:#ed344a;fill-rule:nonzero;"/><path d="M448.896,292.327l0,9.23l9.231,0l0,-9.23l-9.231,0Z" style="fill:#ed344a;fill-rule:nonzero;"/><path d="M462.742,278.48l0,9.231l9.231,0l0,-9.231l-9.231,0Z" style="fill:#ed344a;fill-rule:nonzero;"/><path d="M462.742,292.327l0,9.23l9.231,0l0,-9.23l-9.231,0Z" style="fill:#ed344a;fill-rule:nonzero;"/><path d="M485.819,278.48l0,-4.615l-4.615,0l0,-4.615l-4.616,0l0,-4.616l-4.615,0l0,-4.615l-23.077,0l0,4.615l-4.615,0l0,4.616l-4.616,0l0,4.615l-4.615,0l0,4.615l-4.615,0l0,23.077l4.615,0l0,4.616l4.615,0l0,4.615l4.616,0l0,4.616l4.615,0l0,4.615l23.077,0l0,-4.615l4.615,0l0,-4.616l4.616,0l0,-4.615l4.615,0l0,-4.616l4.616,0l0,-23.077l-4.616,0Zm-9.231,18.462l0,9.231l-9.23,0l0,4.615l-13.847,0l0,-4.615l-9.23,0l0,-9.231l-4.616,0l0,-13.846l4.616,0l0,-9.231l9.23,0l0,-4.615l13.847,0l0,4.615l9.23,0l0,9.231l4.616,0l0,13.846l-4.616,0Z" style="fill:#ed344a;fill-rule:nonzero;"/></g></g><rect x="0" y="0" width="800" height="20" style="fill:#f22f46;"/><rect x="0" y="380" width="800" height="20" style="fill:#f22f46;"/></svg>