<?xml version="1.0" encoding="UTF-8" standalone="no"?><!DOCTYPE svg PUBLIC "-//W3C//DTD SVG 1.1//EN" "http://www.w3.org/Graphics/SVG/1.1/DTD/svg11.dtd"><svg width="100%" height="100%" viewBox="0 0 690 330" version="1.1" xmlns="http://www.w3.org/2000/svg" xmlns:xlink="http://www.w3.org/1999/xlink" xml:space="preserve" xmlns:serif="http://www.serif.com/" style="fill-rule:evenodd;clip-rule:evenodd;stroke-linejoin:round;stroke-miterlimit:2;"><rect id="Artboard1" x="0" y="0" width="690" height="330" style="fill:none;"/><path d="M20.222,99.603l0,-9.955l-9.955,0l0,-49.774l9.955,0l0,-9.954l49.774,0l0,9.954l9.954,0l0,49.774l-9.954,0l0,9.955l-49.774,0Zm9.954,-9.955l29.865,0l0,-49.774l-29.865,0l0,49.774Z" style="fill-rule:nonzero;"/><path d="M89.905,109.558l0,-59.729l59.729,0l0,9.955l9.955,0l0,19.91l-9.955,0l0,9.954l-39.819,0l0,19.91l-19.91,0Zm19.91,-29.864l29.864,0l0,-19.91l-29.864,0l0,19.91Z" style="fill-rule:nonzero;"/><path d="M179.498,99.603l0,-9.955l-9.954,0l0,-29.864l9.954,0l0,-9.955l49.774,0l0,9.955l9.955,0l0,19.91l-49.774,0l0,9.954l39.819,0l0,9.955l-49.774,0Zm9.955,-29.864l29.864,0l0,-9.955l-29.864,0l0,9.955Z" style="fill-rule:nonzero;"/><path d="M249.182,99.603l0,-49.774l59.729,0l0,9.955l9.954,0l0,39.819l-19.909,0l0,-39.819l-29.865,0l0,39.819l-19.909,0Z" style="fill-rule:nonzero;"/><path d="M109.747,199.203l0,-69.683l59.729,0l0,9.954l9.955,0l0,29.865l-9.955,0l0,9.955l-39.819,0l0,19.909l-19.91,0Zm19.91,-29.864l29.864,0l0,-29.865l-29.864,0l0,29.865Z" style="fill-rule:nonzero;"/><path d="M219.25,139.474l0,-9.954l19.909,0l0,9.954l-19.909,0Zm-19.91,59.729l0,-9.955l19.91,0l0,-29.864l-9.955,0l0,-9.955l29.864,0l0,39.819l19.91,0l0,9.955l-59.729,0Z" style="fill-rule:nonzero;"/><path d="M269.024,199.203l0,-9.955l9.955,0l0,-9.954l9.954,0l0,-9.955l-9.954,0l0,-9.955l-9.955,0l0,-9.955l19.909,0l0,9.955l9.955,0l0,9.955l9.955,0l0,-9.955l9.955,0l0,-9.955l19.909,0l0,9.955l-9.954,0l0,9.955l-9.955,0l0,9.955l9.955,0l0,9.954l9.954,0l0,9.955l-19.909,0l0,-9.955l-9.955,0l0,-9.954l-9.955,0l0,9.954l-9.955,0l0,9.955l-19.909,0Z" style="fill-rule:nonzero;"/><path d="M358.617,199.203l0,-9.955l-9.955,0l0,-29.864l9.955,0l0,-9.955l49.774,0l0,9.955l9.955,0l0,19.91l-49.774,0l0,9.954l39.819,0l0,9.955l-49.774,0Zm9.955,-29.864l29.864,0l0,-9.955l-29.864,0l0,9.955Z" style="fill-rule:nonzero;"/><path d="M438.255,199.203l0,-9.955l19.91,0l0,-49.774l-9.955,0l0,-9.954l29.864,0l0,59.728l19.91,0l0,9.955l-59.729,0Z" style="fill-rule:nonzero;"/><path d="M10.267,279.777l0,-49.774l9.955,0l0,-9.954l9.954,0l0,-9.955l29.865,0l0,9.955l9.955,0l0,9.954l9.954,0l0,49.774l-19.909,0l0,-19.909l-29.865,0l0,19.909l-19.909,0Zm19.909,-29.864l29.865,0l0,-19.91l-9.955,0l0,-9.954l-9.955,0l0,9.954l-9.955,0l0,19.91Z" style="fill-rule:nonzero;"/><path d="M119.77,239.958l9.954,0l0,9.955l-9.954,0l0,29.864l-19.91,0l0,-49.774l19.91,0l0,9.955Zm39.819,-9.955l0,9.955l-29.865,0l0,-9.955l29.865,0Z" style="fill-rule:nonzero;"/><path d="M199.408,279.777l0,-39.819l-19.91,0l0,-9.955l19.91,0l0,-19.909l19.909,0l0,19.909l19.91,0l0,9.955l-19.91,0l0,39.819l-19.909,0Z" style="fill-rule:nonzero;"/><path d="M284.659,274.802l0,-4.975l-4.975,0l0,-29.852l9.951,0l0,9.951l19.901,0l0,4.975l4.975,0l0,14.926l-4.975,0l0,4.975l-24.877,0Zm4.976,-4.975l14.926,0l0,-14.926l-14.926,0l0,14.926Z" style="fill-rule:nonzero;"/><path d="M324.462,279.777l0,-4.975l19.901,0l0,-4.975l-19.901,0l0,-4.976l-4.975,0l0,-14.925l9.95,0l0,14.925l14.926,0l0,-14.925l9.951,0l0,24.876l-4.976,0l0,4.975l-24.876,0Z" style="fill-rule:nonzero;"/><g><rect x="90.043" y="190.043" width="9.957" height="9.957" style="fill:#f22f46;"/><rect x="340.043" y="80" width="9.957" height="9.957" style="fill:#0d122b;"/><rect x="420" y="120.043" width="9.957" height="9.957" style="fill:#f22f46;"/><rect x="510.043" y="170" width="9.957" height="9.957" style="fill:#8c5bd8;"/><rect x="150.043" y="19.962" width="9.957" height="9.957" style="fill:#f22f46;"/><rect x="190" y="169.957" width="9.957" height="9.957" style="fill:#36d576;"/><rect x="50" y="120" width="9.957" height="9.957" style="fill:#efdc2e;"/><rect x="290" y="220" width="9.957" height="9.957" style="fill:#f22f46;"/><rect x="120" y="290.043" width="9.957" height="9.957" style="fill:#f22f46;"/><rect x="560" y="200" width="9.957" height="9.957" style="fill:#f47c22;"/><rect x="569.957" y="290.043" width="9.957" height="9.957" style="fill:#008cff;"/><rect x="250.043" y="269.82" width="9.957" height="9.957" style="fill:#8c5bd8;"/><rect x="460" y="310.043" width="9.957" height="9.957" style="fill:#f22f46;"/><rect x="650" y="160" width="9.957" height="9.957" style="fill:#f22f46;"/><rect x="540" y="120.043" width="9.957" height="9.957" style="fill:#f47c22;"/><rect x="600.043" y="140.043" width="9.957" height="9.957" style="fill:#f22f46;"/><rect x="430.043" y="210" width="9.957" height="9.957" style="fill:#f22f46;"/><rect x="480.043" y="60" width="9.957" height="9.957" style="fill:#f22f46;"/><rect x="310" y="19.962" width="9.957" height="9.957" style="fill:#f22f46;"/><rect x="630.043" y="90" width="9.957" height="9.957" style="fill:#37d676;"/><rect x="400" y="40" width="9.957" height="9.957" style="fill:#8d57d8;"/></g><path d="M449.951,279.777l0,-29.851l-9.951,0l0,-4.976l29.852,0l0,4.976l-9.951,0l0,29.851l-9.95,0Z" style="fill:#f22f46;fill-rule:nonzero;"/><path d="M484.778,274.802l4.975,0l0,4.975l-9.951,0l0,-4.975l-4.975,0l0,-19.901l9.951,0l0,19.901Zm9.95,-19.901l0,19.901l-4.975,0l0,-19.901l4.975,0Zm14.926,0l0,19.901l-4.975,0l0,4.975l-9.951,0l0,-4.975l4.976,0l0,-19.901l9.95,0Z" style="fill:#f22f46;fill-rule:nonzero;"/><path d="M529.555,249.926l0,-4.976l9.951,0l0,4.976l-9.951,0Zm-9.95,29.851l0,-4.975l9.95,0l0,-14.926l-4.975,0l0,-4.975l14.926,0l0,19.901l9.951,0l0,4.975l-29.852,0Z" style="fill:#f22f46;fill-rule:nonzero;"/><path d="M559.407,279.777l0,-4.975l9.951,0l0,-24.876l-4.975,0l0,-4.976l14.925,0l0,29.852l9.951,0l0,4.975l-29.852,0Z" style="fill:#f22f46;fill-rule:nonzero;"/><path d="M609.16,249.926l0,-4.976l9.951,0l0,4.976l-9.951,0Zm-9.95,29.851l0,-4.975l9.95,0l0,-14.926l-4.975,0l0,-4.975l14.926,0l0,19.901l9.951,0l0,4.975l-29.852,0Z" style="fill:#f22f46;fill-rule:nonzero;"/><path d="M639.012,279.777l0,-4.975l-4.975,0l0,-14.926l4.975,0l0,-4.975l24.877,0l0,4.975l4.975,0l0,14.926l-4.975,0l0,4.975l-24.877,0Zm4.975,-4.975l14.926,0l0,-14.926l-14.926,0l0,14.926Z" style="fill:#f22f46;fill-rule:nonzero;"/><g><rect x="388.462" y="248.462" width="9.231" height="9.231" style="fill:#ed344a;fill-rule:nonzero;"/><rect x="388.462" y="262.308" width="9.231" height="9.231" style="fill:#ed344a;fill-rule:nonzero;"/><rect x="402.308" y="248.462" width="9.231" height="9.231" style="fill:#ed344a;fill-rule:nonzero;"/><rect x="402.308" y="262.308" width="9.231" height="9.231" style="fill:#ed344a;fill-rule:nonzero;"/><path d="M425.385,248.462l0,-4.616l-4.616,0l0,-4.615l-4.615,0l0,-4.616l-4.616,0l0,-4.615l-23.076,0l0,4.615l-4.616,0l0,4.616l-4.615,0l0,4.615l-4.616,0l0,4.616l-4.615,0l0,23.076l4.615,0l0,4.616l4.616,0l0,4.615l4.615,0l0,4.616l4.616,0l0,4.615l23.076,0l0,-4.615l4.616,0l0,-4.616l4.615,0l0,-4.615l4.616,0l0,-4.616l4.615,0l0,-23.076l-4.615,0Zm-9.231,18.461l0,9.231l-9.231,0l0,4.615l-13.846,0l0,-4.615l-9.231,0l0,-9.231l-4.615,0l0,-13.846l4.615,0l0,-9.231l9.231,0l0,-4.615l13.846,0l0,4.615l9.231,0l0,9.231l4.615,0l0,13.846l-4.615,0Z" style="fill:#ed344a;fill-rule:nonzero;"/></g></svg>