<?xml version="1.0" encoding="UTF-8" standalone="no"?><!DOCTYPE svg PUBLIC "-//W3C//DTD SVG 1.1//EN" "http://www.w3.org/Graphics/SVG/1.1/DTD/svg11.dtd"><svg width="100%" height="100%" viewBox="0 0 690 330" version="1.1" xmlns="http://www.w3.org/2000/svg" xmlns:xlink="http://www.w3.org/1999/xlink" xml:space="preserve" xmlns:serif="http://www.serif.com/" style="fill-rule:evenodd;clip-rule:evenodd;stroke-linejoin:round;stroke-miterlimit:2;"><rect id="Artboard1" x="0" y="0" width="690" height="330" style="fill:none;"/><text x="10.267px" y="109.558px" style="font-family:'PressStart2P-Regular', 'Press Start 2P';font-size:79.638px;">Open</text><text x="109.747px" y="209.158px" style="font-family:'PressStart2P-Regular', 'Press Start 2P';font-size:79.638px;">Pixel</text><text x="10.267px" y="289.732px" style="font-family:'PressStart2P-Regular', 'Press Start 2P';font-size:79.638px;">Art</text><text x="279.684px" y="279.777px" style="font-family:'PressStart2P-Regular', 'Press Start 2P';font-size:39.802px;">by</text><g><rect x="90.043" y="190.043" width="9.957" height="9.957" style="fill:#f22f46;"/><rect x="340.043" y="80" width="9.957" height="9.957" style="fill:#0d122b;"/><rect x="420" y="120.043" width="9.957" height="9.957" style="fill:#f22f46;"/><rect x="510.043" y="170" width="9.957" height="9.957" style="fill:#8c5bd8;"/><rect x="150.043" y="19.962" width="9.957" height="9.957" style="fill:#f22f46;"/><rect x="190" y="169.957" width="9.957" height="9.957" style="fill:#36d576;"/><rect x="50" y="120" width="9.957" height="9.957" style="fill:#efdc2e;"/><rect x="290" y="220" width="9.957" height="9.957" style="fill:#f22f46;"/><rect x="120" y="290.043" width="9.957" height="9.957" style="fill:#f22f46;"/><rect x="560" y="200" width="9.957" height="9.957" style="fill:#f47c22;"/><rect x="569.957" y="290.043" width="9.957" height="9.957" style="fill:#008cff;"/><rect x="250.043" y="269.82" width="9.957" height="9.957" style="fill:#8c5bd8;"/><rect x="460" y="310.043" width="9.957" height="9.957" style="fill:#f22f46;"/><rect x="650" y="160" width="9.957" height="9.957" style="fill:#f22f46;"/><rect x="540" y="120.043" width="9.957" height="9.957" style="fill:#f47c22;"/><rect x="600.043" y="140.043" width="9.957" height="9.957" style="fill:#f22f46;"/><rect x="430.043" y="210" width="9.957" height="9.957" style="fill:#f22f46;"/><rect x="480.043" y="60" width="9.957" height="9.957" style="fill:#f22f46;"/><rect x="310" y="19.962" width="9.957" height="9.957" style="fill:#f22f46;"/><rect x="630.043" y="90" width="9.957" height="9.957" style="fill:#37d676;"/><rect x="400" y="40" width="9.957" height="9.957" style="fill:#8d57d8;"/></g><text x="435.025px" y="284.753px" style="font-family:'PressStart2P-Regular', 'Press Start 2P';font-size:39.802px;fill:#f22f46;">Twilio</text><g><path d="M388.462,248.462l0,9.23l9.23,0l0,-9.23l-9.23,0Z" style="fill:#ed344a;fill-rule:nonzero;"/><path d="M388.462,262.308l0,9.23l9.23,0l0,-9.23l-9.23,0Z" style="fill:#ed344a;fill-rule:nonzero;"/><path d="M402.308,248.462l0,9.23l9.23,0l0,-9.23l-9.23,0Z" style="fill:#ed344a;fill-rule:nonzero;"/><path d="M402.308,262.308l0,9.23l9.23,0l0,-9.23l-9.23,0Z" style="fill:#ed344a;fill-rule:nonzero;"/><path d="M425.385,248.462l0,-4.616l-4.616,0l0,-4.615l-4.615,0l0,-4.616l-4.616,0l0,-4.615l-23.076,0l0,4.615l-4.616,0l0,4.616l-4.615,0l0,4.615l-4.616,0l0,4.616l-4.615,0l0,23.076l4.615,0l0,4.616l4.616,0l0,4.615l4.615,0l0,4.616l4.616,0l0,4.615l23.076,0l0,-4.615l4.616,0l0,-4.616l4.615,0l0,-4.615l4.616,0l0,-4.616l4.615,0l0,-23.076l-4.615,0Zm-9.231,18.461l0,9.231l-9.231,0l0,4.615l-13.846,0l0,-4.615l-9.231,0l0,-9.231l-4.615,0l0,-13.846l4.615,0l0,-9.231l9.231,0l0,-4.615l13.846,0l0,4.615l9.231,0l0,9.231l4.615,0l0,13.846l-4.615,0Z" style="fill:#ed344a;fill-rule:nonzero;"/></g></svg>