<svg xmlns="http://www.w3.org/2000/svg" viewBox="0 0 55 55"><defs><style>.cls-1{fill:#ed344a;}.cls-2{fill:#fff;}</style></defs><title>txs0aAsset 11dsd</title><g id="Layer_2" data-name="Layer 2"><g id="bugShield"><polygon class="cls-1" points="20 15 15 15 15 20 15 25 20 25 25 25 25 20 25 15 20 15"/><polygon class="cls-1" points="20 30 15 30 15 35 15 40 20 40 25 40 25 35 25 30 20 30"/><polygon class="cls-1" points="35 15 30 15 30 20 30 25 35 25 40 25 40 20 40 15 35 15"/><polygon class="cls-1" points="35 30 30 30 30 35 30 40 35 40 40 40 40 35 40 30 35 30"/><path class="cls-2" d="M45,20V10H35V5H20v5H10V20H5V35h5V45H20v5H35V45H45V35h5V20Zm-5-5V25H30V15H40ZM15,15H25V25H15V15Zm0,25V30H25V40H15Zm25,0H30V30H40V40Z"/><polygon class="cls-1" points="10 35 5 35 5 30 5 25 5 20 10 20 10 15 10 10 5 10 5 15 0 15 0 20 0 25 0 30 0 35 0 40 5 40 5 45 10 45 10 40 10 35"/><polygon class="cls-1" points="35 45 35 50 30 50 25 50 20 50 20 45 15 45 10 45 10 50 15 50 15 55 20 55 25 55 30 55 35 55 40 55 40 50 45 50 45 45 40 45 35 45"/><polygon class="cls-1" points="20 10 20 5 25 5 30 5 35 5 35 10 40 10 45 10 45 5 40 5 40 0 35 0 30 0 25 0 20 0 15 0 15 5 10 5 10 10 15 10 20 10"/><polygon class="cls-1" points="50 15 50 10 45 10 45 15 45 20 50 20 50 25 50 30 50 35 45 35 45 40 45 45 50 45 50 40 55 40 55 35 55 30 55 25 55 20 55 15 50 15"/></g></g></svg>